<?xml version="1.0" encoding="UTF-8"?>
<!DOCTYPE svg PUBLIC "-//W3C//DTD SVG 1.1//EN" "http://www.w3.org/Graphics/SVG/1.1/DTD/svg11.dtd">
<!-- Creator: CorelDRAW 2021 (64-Bit) -->
<svg xmlns="http://www.w3.org/2000/svg" xml:space="preserve" width="128px" height="128px" version="1.1" shape-rendering="geometricPrecision" text-rendering="geometricPrecision" image-rendering="optimizeQuality" fill-rule="evenodd" clip-rule="evenodd"
viewBox="0 0 7.4 7.4"
 xmlns:xlink="http://www.w3.org/1999/xlink"
 xmlns:xodm="http://www.corel.com/coreldraw/odm/2003">
 <defs>
   <linearGradient id="id0" gradientUnits="userSpaceOnUse" x1="0.66" y1="5.81" x2="6.69" y2="1.51">
    <stop offset="0" stop-opacity="1" stop-color="#1E88E5"/>
    <stop offset="0.458824" stop-opacity="1" stop-color="#664FAA"/>
    <stop offset="1" stop-opacity="1" stop-color="#AF166F"/>
   </linearGradient>
 </defs>
 <g id="Layer_x0020_1">
  <metadata id="CorelCorpID_0Corel-Layer"/>
  <path fill="url(#id0)" d="M3.91 2.18c-0.01,-0.07 0.05,-0.27 0.09,-0.35 0.43,-0.89 1.65,-0.52 1.65,0.35 0,0.61 -0.66,1.06 -1.22,0.79 -0.05,-0.03 -0.1,-0.05 -0.14,-0.08 -0.04,-0.03 -0.09,-0.07 -0.13,-0.1 -0.09,0.06 -0.18,0.11 -0.28,0.17 -0.1,0.05 -0.19,0.1 -0.28,0.16l-0.58 0.33c0.06,0.48 0,0.27 0,0.49 0.1,0.06 0.18,0.11 0.28,0.17l0.86 0.5c0.04,-0.03 0.08,-0.06 0.12,-0.1 0.58,-0.41 1.37,0.03 1.37,0.71 0,0.86 -1.22,1.24 -1.65,0.35 -0.11,-0.23 -0.08,-0.38 -0.05,-0.6l-0.86 -0.49c-0.1,-0.06 -0.19,-0.11 -0.29,-0.17 -0.12,0.07 -0.07,0.08 -0.26,0.17 -0.56,0.28 -1.23,-0.17 -1.23,-0.78 0,-0.68 0.79,-1.12 1.36,-0.71 0.05,0.03 0.09,0.07 0.13,0.1 0.09,-0.06 0.19,-0.11 0.28,-0.17l0.86 -0.49 -0.03 -0.25zm-3.91 1.37c0,0.65 0.08,1.18 0.34,1.7 0.21,0.42 0.39,0.72 0.73,1.06 0.34,0.33 0.62,0.52 1.05,0.74 0.34,0.17 0.94,0.35 1.45,0.35l0.26 0c1.02,0 2.05,-0.55 2.7,-1.31 0.49,-0.58 0.87,-1.45 0.87,-2.26l0 -0.26c0,-0.5 -0.18,-1.1 -0.34,-1.44 -0.23,-0.45 -0.48,-0.81 -0.85,-1.16l-0.38 -0.3c-0.71,-0.47 -1.29,-0.67 -2.25,-0.67 -0.63,0 -1.26,0.22 -1.73,0.49 -0.42,0.24 -0.89,0.65 -1.17,1.06 -0.38,0.56 -0.68,1.26 -0.68,2z"/>
 </g>
</svg>
