<?xml version="1.0" encoding="UTF-8"?>
<!DOCTYPE svg PUBLIC "-//W3C//DTD SVG 1.1//EN" "http://www.w3.org/Graphics/SVG/1.1/DTD/svg11.dtd">
<!-- Creator: CorelDRAW 2021 (64-Bit) -->
<svg xmlns="http://www.w3.org/2000/svg" xml:space="preserve" width="256px" height="53px" version="1.1" shape-rendering="geometricPrecision" text-rendering="geometricPrecision" image-rendering="optimizeQuality" fill-rule="evenodd" clip-rule="evenodd"
viewBox="0 0 27.97 5.75"
 xmlns:xlink="http://www.w3.org/1999/xlink"
 xmlns:xodm="http://www.corel.com/coreldraw/odm/2003">
 <g id="Layer_x0020_1">
  <metadata id="CorelCorpID_0Corel-Layer"/>
  <g id="_2701371550880">
   <path fill="#1E88E5" fill-rule="nonzero" d="M0.99 4.71c-0.21,0 -0.39,-0.04 -0.54,-0.11 -0.14,-0.08 -0.26,-0.19 -0.33,-0.33 -0.08,-0.15 -0.12,-0.33 -0.12,-0.53l0 -0.21 0.6 0 0 0.2c0,0.12 0.04,0.22 0.1,0.29 0.07,0.06 0.17,0.1 0.29,0.1 0.12,0 0.21,-0.04 0.28,-0.1 0.07,-0.07 0.1,-0.17 0.1,-0.29l0 -0.35c0,-0.09 -0.02,-0.16 -0.07,-0.22 -0.04,-0.06 -0.1,-0.11 -0.17,-0.15 -0.07,-0.05 -0.16,-0.1 -0.28,-0.15 -0.01,0 -0.01,-0.01 -0.02,-0.01 0,0 -0.01,-0.01 -0.01,-0.01l-0.04 -0.01c-0.16,-0.08 -0.29,-0.16 -0.4,-0.24 -0.11,-0.07 -0.2,-0.18 -0.27,-0.31 -0.07,-0.13 -0.11,-0.3 -0.11,-0.5l0 -0.22c0,-0.2 0.04,-0.37 0.12,-0.51 0.07,-0.15 0.19,-0.26 0.33,-0.33 0.15,-0.07 0.33,-0.11 0.54,-0.11 0.2,0 0.38,0.04 0.52,0.11 0.14,0.07 0.25,0.18 0.33,0.33 0.07,0.14 0.11,0.32 0.11,0.52l0 0.22 -0.6 0.01 0 -0.21c0,-0.13 -0.03,-0.23 -0.1,-0.29 -0.06,-0.07 -0.15,-0.1 -0.26,-0.1 -0.12,0 -0.22,0.03 -0.28,0.09 -0.07,0.06 -0.1,0.15 -0.1,0.27l0 0.26c0,0.08 0.02,0.16 0.06,0.22 0.05,0.06 0.1,0.12 0.17,0.16 0.06,0.03 0.16,0.08 0.27,0.14 0.02,0 0.03,0.01 0.05,0.02 0.02,0.01 0.03,0.02 0.05,0.02 0.01,0.01 0.01,0.01 0.02,0.01 0,0.01 0.01,0.01 0.02,0.01 0.16,0.08 0.28,0.15 0.38,0.22 0.09,0.07 0.18,0.16 0.24,0.29 0.07,0.12 0.1,0.28 0.1,0.48l0 0.35c0,0.2 -0.03,0.38 -0.11,0.53 -0.08,0.14 -0.19,0.25 -0.34,0.33 -0.14,0.07 -0.32,0.11 -0.53,0.11zm1.52 -4.06l0.6 0 0 4.02 -0.6 0 0 -4.02zm1.18 2.02c0,-0.12 -0.03,-0.21 -0.08,-0.27 -0.04,-0.06 -0.11,-0.09 -0.21,-0.09 -0.1,0 -0.17,0.03 -0.21,0.09 -0.05,0.06 -0.08,0.15 -0.08,0.27l-0.05 -0.38c0.06,-0.18 0.15,-0.31 0.26,-0.4 0.11,-0.1 0.24,-0.14 0.38,-0.14 0.19,0 0.33,0.06 0.44,0.19 0.1,0.13 0.15,0.32 0.15,0.56l0 2.17 -0.6 0 0 -2zm2.33 -0.08c0,-0.1 -0.03,-0.17 -0.08,-0.22 -0.05,-0.06 -0.12,-0.08 -0.21,-0.08 -0.08,0 -0.15,0.02 -0.19,0.08 -0.05,0.05 -0.07,0.12 -0.07,0.22l-0.58 0c0,-0.27 0.07,-0.48 0.22,-0.62 0.15,-0.15 0.36,-0.22 0.63,-0.22 0.18,0 0.33,0.03 0.46,0.1 0.13,0.06 0.23,0.16 0.3,0.28 0.07,0.13 0.1,0.28 0.1,0.46l0 2.08 -0.58 0 0 -2.08zm-0.51 2.12c-0.22,0 -0.39,-0.07 -0.51,-0.21 -0.11,-0.13 -0.17,-0.34 -0.17,-0.6 0,-0.32 0.08,-0.56 0.23,-0.72 0.16,-0.16 0.38,-0.24 0.69,-0.24l0.29 0 0.03 0.51 -0.3 0c-0.12,0 -0.21,0.04 -0.28,0.11 -0.06,0.08 -0.09,0.19 -0.09,0.34 0,0.09 0.03,0.17 0.07,0.22 0.05,0.04 0.11,0.07 0.2,0.07 0.12,0 0.2,-0.03 0.26,-0.09 0.06,-0.07 0.09,-0.16 0.09,-0.28l0.05 0.25c0,0.14 -0.02,0.26 -0.07,0.35 -0.04,0.1 -0.1,0.17 -0.18,0.22 -0.09,0.05 -0.19,0.07 -0.31,0.07zm1.67 -2.91l0.6 0 0 2.87 -0.6 0 0 -2.87zm1.34 0.57c-0.02,0 -0.04,0 -0.06,0 -0.02,0 -0.05,0 -0.08,0 -0.19,0 -0.33,0.05 -0.44,0.15 -0.1,0.1 -0.16,0.24 -0.16,0.42l-0.06 -0.64c0.09,-0.17 0.21,-0.31 0.34,-0.41 0.14,-0.09 0.29,-0.14 0.46,-0.14 0,0 0,0 0,0 0,0 0,0 0,0l0 0.62zm1.2 2.34c-0.19,0 -0.35,-0.04 -0.48,-0.11 -0.13,-0.07 -0.23,-0.18 -0.3,-0.31 -0.07,-0.14 -0.11,-0.31 -0.11,-0.5l0 -1.07c0,-0.21 0.04,-0.38 0.1,-0.53 0.07,-0.14 0.17,-0.25 0.3,-0.33 0.13,-0.07 0.29,-0.11 0.47,-0.11 0.18,0 0.34,0.03 0.47,0.11 0.14,0.07 0.24,0.17 0.31,0.31 0.06,0.14 0.1,0.3 0.1,0.5l0 0.78 -1.29 0 0 -0.46 0.71 0 0 -0.33c0,-0.12 -0.03,-0.21 -0.08,-0.27 -0.05,-0.07 -0.13,-0.1 -0.22,-0.1 -0.09,0 -0.16,0.04 -0.21,0.1 -0.05,0.07 -0.07,0.17 -0.07,0.3l0 1.12c0,0.11 0.02,0.19 0.08,0.25 0.05,0.07 0.12,0.1 0.22,0.1 0.09,0 0.16,-0.03 0.21,-0.07 0.05,-0.05 0.07,-0.12 0.07,-0.2l0 -0.06 0.59 0 0 0.05c0,0.26 -0.08,0.47 -0.23,0.61 -0.15,0.15 -0.36,0.22 -0.64,0.22zm3.42 -4.06l0.56 0 0 4.02 -0.55 0 0 -2.93 0.04 0.18 -0.63 2.06 -0.34 0 -0.64 -2 0.06 -0.24 0 2.93 -0.56 0 0 -4.02 0.57 0 0.74 2.35 0.75 -2.35zm1.94 4.06c-0.19,0 -0.35,-0.04 -0.48,-0.11 -0.14,-0.07 -0.24,-0.18 -0.31,-0.31 -0.07,-0.14 -0.1,-0.31 -0.1,-0.5l0 -1.07c0,-0.21 0.03,-0.38 0.1,-0.53 0.07,-0.14 0.17,-0.25 0.3,-0.33 0.13,-0.07 0.28,-0.11 0.47,-0.11 0.18,0 0.34,0.03 0.47,0.11 0.13,0.07 0.23,0.17 0.3,0.31 0.07,0.14 0.11,0.3 0.11,0.5l0 0.78 -1.29 0 0 -0.46 0.7 0 0 -0.33c0,-0.12 -0.02,-0.21 -0.08,-0.27 -0.05,-0.07 -0.12,-0.1 -0.21,-0.1 -0.09,0 -0.16,0.04 -0.21,0.1 -0.05,0.07 -0.08,0.17 -0.08,0.3l0 1.12c0,0.11 0.03,0.19 0.08,0.25 0.06,0.07 0.13,0.1 0.23,0.1 0.09,0 0.16,-0.03 0.21,-0.07 0.05,-0.05 0.07,-0.12 0.07,-0.2l0 -0.06 0.58 0 0 0.05c0,0.26 -0.07,0.47 -0.22,0.61 -0.15,0.15 -0.37,0.22 -0.64,0.22z"/>
   <path fill="#AF166F" fill-rule="nonzero" d="M16.52 2.58c0.08,0 0.14,-0.02 0.19,-0.07 0.04,-0.04 0.07,-0.1 0.07,-0.19l0 -1.45c0,-0.27 0.07,-0.49 0.22,-0.64 0.16,-0.15 0.37,-0.23 0.65,-0.23l0 0.57c-0.09,0 -0.16,0.03 -0.21,0.08 -0.05,0.05 -0.08,0.12 -0.08,0.21l0 1.49c0,0.24 -0.07,0.43 -0.22,0.56 -0.15,0.13 -0.36,0.19 -0.62,0.19l0 -0.52zm1.13 3.17c-0.28,0 -0.49,-0.07 -0.65,-0.22 -0.15,-0.16 -0.22,-0.37 -0.22,-0.65l0 -1.45c0,-0.08 -0.03,-0.14 -0.07,-0.19 -0.05,-0.05 -0.11,-0.07 -0.19,-0.07l0 -0.52c0.27,0 0.48,0.07 0.62,0.2 0.15,0.14 0.22,0.33 0.22,0.58l0 1.46c0,0.09 0.03,0.16 0.08,0.21 0.05,0.05 0.12,0.08 0.21,0.08l0 0.57zm1.3 -1.04c-0.2,0 -0.37,-0.04 -0.51,-0.12 -0.14,-0.08 -0.25,-0.2 -0.32,-0.35 -0.08,-0.16 -0.12,-0.34 -0.12,-0.56l0 -2.05c0,-0.21 0.04,-0.4 0.12,-0.55 0.07,-0.15 0.18,-0.27 0.32,-0.35 0.14,-0.08 0.31,-0.12 0.51,-0.12 0.2,0 0.37,0.04 0.51,0.12 0.15,0.08 0.25,0.2 0.33,0.35 0.07,0.15 0.11,0.34 0.11,0.55l0 0.25 -0.61 0 0 -0.25c0,-0.09 -0.01,-0.16 -0.04,-0.22 -0.03,-0.07 -0.06,-0.12 -0.12,-0.15 -0.05,-0.03 -0.11,-0.05 -0.18,-0.05 -0.07,0 -0.13,0.02 -0.18,0.05 -0.05,0.03 -0.09,0.08 -0.11,0.15 -0.03,0.06 -0.04,0.13 -0.04,0.22l0 2.05c0,0.09 0.01,0.17 0.04,0.23 0.02,0.06 0.06,0.11 0.11,0.14 0.05,0.04 0.11,0.05 0.18,0.05 0.07,0 0.13,-0.01 0.18,-0.05 0.06,-0.03 0.09,-0.08 0.12,-0.14 0.03,-0.06 0.04,-0.14 0.04,-0.23l0 -0.25 0.61 0 0 0.25c0,0.22 -0.04,0.4 -0.11,0.56 -0.08,0.15 -0.18,0.27 -0.33,0.35 -0.14,0.08 -0.31,0.12 -0.51,0.12zm2.23 0c-0.18,0 -0.33,-0.03 -0.45,-0.1 -0.13,-0.06 -0.23,-0.15 -0.29,-0.27 -0.07,-0.12 -0.1,-0.27 -0.1,-0.44l0 -1.36c0,-0.17 0.03,-0.31 0.1,-0.43 0.06,-0.12 0.16,-0.21 0.29,-0.27 0.12,-0.06 0.27,-0.09 0.45,-0.09 0.18,0 0.33,0.03 0.46,0.09 0.12,0.06 0.22,0.15 0.28,0.27 0.07,0.12 0.1,0.26 0.1,0.43l0 1.37c0,0.17 -0.03,0.31 -0.1,0.43 -0.06,0.12 -0.16,0.21 -0.28,0.27 -0.13,0.07 -0.28,0.1 -0.46,0.1zm0 -0.57c0.08,0 0.14,-0.02 0.18,-0.07 0.04,-0.05 0.06,-0.11 0.06,-0.2l0 -1.29c0,-0.09 -0.02,-0.15 -0.06,-0.2 -0.04,-0.05 -0.1,-0.07 -0.18,-0.07 -0.07,0 -0.13,0.02 -0.18,0.07 -0.04,0.05 -0.06,0.11 -0.06,0.2l0 1.29c0,0.09 0.02,0.15 0.06,0.2 0.04,0.05 0.1,0.07 0.18,0.07zm2.46 -3.49l0.6 0 0 4.02 -0.6 0 0 -4.02zm-0.56 4.06c-0.13,0 -0.23,-0.03 -0.32,-0.09 -0.09,-0.06 -0.16,-0.16 -0.21,-0.28 -0.04,-0.12 -0.07,-0.27 -0.07,-0.44l0 -1.32c0,-0.17 0.03,-0.32 0.07,-0.45 0.05,-0.12 0.12,-0.22 0.21,-0.28 0.09,-0.07 0.19,-0.1 0.32,-0.1 0.13,0 0.25,0.04 0.35,0.13 0.11,0.1 0.2,0.22 0.26,0.38l-0.05 0.39c0,-0.07 -0.02,-0.14 -0.04,-0.19 -0.02,-0.05 -0.05,-0.09 -0.09,-0.12 -0.04,-0.02 -0.09,-0.04 -0.15,-0.04 -0.09,0 -0.16,0.03 -0.21,0.1 -0.05,0.06 -0.07,0.14 -0.07,0.25l0 1.19c0,0.1 0.02,0.18 0.07,0.23 0.05,0.06 0.12,0.09 0.21,0.09 0.06,0 0.11,-0.01 0.15,-0.04 0.04,-0.03 0.07,-0.06 0.09,-0.11 0.02,-0.05 0.04,-0.12 0.04,-0.19l0.03 0.4c-0.05,0.15 -0.12,0.28 -0.23,0.36 -0.1,0.09 -0.22,0.13 -0.36,0.13zm2.57 0c-0.19,0 -0.35,-0.04 -0.48,-0.11 -0.13,-0.07 -0.23,-0.18 -0.31,-0.31 -0.07,-0.14 -0.1,-0.31 -0.1,-0.5l0 -1.07c0,-0.21 0.03,-0.38 0.1,-0.53 0.07,-0.14 0.17,-0.25 0.3,-0.33 0.13,-0.07 0.29,-0.11 0.47,-0.11 0.18,0 0.34,0.03 0.47,0.11 0.13,0.07 0.23,0.17 0.3,0.31 0.07,0.14 0.11,0.3 0.11,0.5l0 0.78 -1.29 0 0 -0.46 0.7 0 0 -0.33c0,-0.12 -0.02,-0.21 -0.07,-0.27 -0.06,-0.07 -0.13,-0.1 -0.22,-0.1 -0.09,0 -0.16,0.04 -0.21,0.1 -0.05,0.07 -0.08,0.17 -0.08,0.3l0 1.12c0,0.11 0.03,0.19 0.08,0.25 0.06,0.07 0.13,0.1 0.23,0.1 0.09,0 0.16,-0.03 0.21,-0.07 0.05,-0.05 0.07,-0.12 0.07,-0.2l0 -0.06 0.58 0 0 0.05c0,0.26 -0.07,0.47 -0.22,0.61 -0.15,0.15 -0.37,0.22 -0.64,0.22zm2.32 -1.61c-0.27,0 -0.48,-0.06 -0.63,-0.19 -0.14,-0.14 -0.22,-0.32 -0.22,-0.56l0 -1.49c0,-0.09 -0.02,-0.16 -0.07,-0.21 -0.05,-0.05 -0.12,-0.08 -0.21,-0.08l0 -0.57c0.28,0 0.49,0.08 0.64,0.23 0.15,0.15 0.23,0.37 0.23,0.64l0 1.45c0,0.08 0.02,0.15 0.07,0.19 0.04,0.05 0.11,0.07 0.19,0.07l0 0.52zm-1.13 2.08c0.09,0 0.16,-0.03 0.21,-0.08 0.05,-0.05 0.07,-0.12 0.07,-0.21l0 -1.46c0,-0.25 0.07,-0.44 0.22,-0.58 0.15,-0.13 0.36,-0.2 0.63,-0.2l0 0.53c-0.08,0 -0.15,0.02 -0.19,0.06 -0.05,0.05 -0.07,0.11 -0.07,0.19l0 1.45c0,0.28 -0.08,0.49 -0.23,0.65 -0.15,0.15 -0.36,0.22 -0.64,0.22l0 -0.57z"/>
  </g>
 </g>
</svg>
